<svg width="128" height="128" viewBox="0 0 128 128" fill="none" xmlns="http://www.w3.org/2000/svg">
<g clip-path="url(#clip0_201_5)">
<g filter="url(#filter0_d_201_5)">
<path d="M81.8441 21.3156L81.8441 21.3156C81.9608 19.8495 81.4983 18.3191 80.4277 17.1295C79.4325 16.0237 78.1666 15.4875 77.0371 15.3303C74.7985 15.0188 71.881 16.1546 70.9195 19.1896L70.9195 19.1897C66.3856 33.5016 61.9779 45.4491 57.3321 55.6114C47.7156 45.1566 42.1981 34.8647 37.8749 19.4179L37.8749 19.4178C37.4701 17.9718 36.4815 16.6888 35.0513 15.9521C33.7291 15.271 32.363 15.2216 31.2681 15.4656C29.122 15.9438 26.7158 17.9908 26.8867 21.2334C26.9072 21.6214 26.9274 22.0059 26.9475 22.387C27.7303 37.2447 28.2414 46.9468 29.6642 55.8734C31.1458 65.1691 33.5917 73.5119 38.1247 85.967C38.1646 86.0766 38.2075 86.184 38.2533 86.2893C32.9495 92.3514 27.0683 97.5204 20.3305 102.24L20.3304 102.24C17.6618 104.109 17.5249 107.3 18.532 109.322C19.5199 111.306 22.0269 113.055 25.0349 112.227C40.9217 107.853 52.9631 105.63 64.7256 105.575C76.4531 105.519 88.2254 107.619 103.537 112.305C107.081 113.39 110.506 110.83 110.762 107.36L110.762 107.359C111.807 93.1884 109.484 83.0675 102.027 76.6088C95.9905 71.3807 87.4544 69.4592 78.0996 68.349L81.8441 21.3156Z" stroke="white" stroke-width="11" shape-rendering="crispEdges"/>
</g>
<path d="M76.3615 20.8791C76.3709 20.7604 76.1986 20.7372 76.1627 20.8507C61.7216 66.436 48.1894 89.4409 23.4859 106.745C23.3937 106.809 23.4664 106.954 23.575 106.925C55.7501 98.0663 73.8756 97.4758 105.146 107.046C105.207 107.065 105.272 107.019 105.277 106.955C107.282 79.7516 95.7009 75.5206 73.182 73.3578C72.6372 73.3055 72.2258 72.8258 72.2692 72.2802L76.3615 20.8791Z" fill="black"/>
<path d="M32.5784 20.9002C32.5461 20.7849 32.3728 20.8243 32.3791 20.9439C34.027 52.1987 34.3373 59.4785 43.293 84.086C43.3196 84.1591 43.4183 84.1772 43.4672 84.1167C48.5887 77.772 50.8763 73.953 56.8871 63.1863C56.909 63.1472 56.9024 63.0967 56.8707 63.065C44.3899 50.6091 37.6325 38.9587 32.5784 20.9002Z" fill="black"/>
<path d="M76.3615 20.8791C76.3709 20.7604 76.1986 20.7372 76.1627 20.8507C61.7216 66.436 48.1894 89.4409 23.4859 106.745C23.3937 106.809 23.4664 106.954 23.575 106.925C55.7501 98.0663 73.8756 97.4758 105.146 107.046C105.207 107.065 105.272 107.019 105.277 106.955C107.282 79.7516 95.7009 75.5206 73.182 73.3578C72.6372 73.3055 72.2258 72.8258 72.2692 72.2802L76.3615 20.8791Z" stroke="black"/>
<path d="M32.5784 20.9002C32.5461 20.7849 32.3728 20.8243 32.3791 20.9439C34.027 52.1987 34.3373 59.4785 43.293 84.086C43.3196 84.1591 43.4183 84.1772 43.4672 84.1167C48.5887 77.772 50.8763 73.953 56.8871 63.1863C56.909 63.1472 56.9024 63.0967 56.8707 63.065C44.3899 50.6091 37.6325 38.9587 32.5784 20.9002Z" stroke="black"/>
</g>
<defs>
<filter id="filter0_d_201_5" x="2.46393" y="2.78442" width="124.034" height="128.28" filterUnits="userSpaceOnUse" color-interpolation-filters="sRGB">
<feFlood flood-opacity="0" result="BackgroundImageFix"/>
<feColorMatrix in="SourceAlpha" type="matrix" values="0 0 0 0 0 0 0 0 0 0 0 0 0 0 0 0 0 0 127 0" result="hardAlpha"/>
<feOffset dy="3"/>
<feGaussianBlur stdDeviation="5"/>
<feComposite in2="hardAlpha" operator="out"/>
<feColorMatrix type="matrix" values="0 0 0 0 0 0 0 0 0 0 0 0 0 0 0 0 0 0 0.11 0"/>
<feBlend mode="normal" in2="BackgroundImageFix" result="effect1_dropShadow_201_5"/>
<feBlend mode="normal" in="SourceGraphic" in2="effect1_dropShadow_201_5" result="shape"/>
</filter>
<clipPath id="clip0_201_5">
<rect width="128" height="128" fill="white"/>
</clipPath>
</defs>
</svg>
